<?xml version="1.0" encoding="UTF-8"?>
<svg xmlns="http://www.w3.org/2000/svg" xmlns:xlink="http://www.w3.org/1999/xlink" width="375pt" height="374.999991pt" viewBox="0 0 375 374.999991" version="1.2">
<defs>
<clipPath id="clip1">
  <path d="M 127.171875 67 L 279.117188 67 L 279.117188 307.34375 L 127.171875 307.34375 Z M 127.171875 67 "/>
</clipPath>
</defs>
<g id="surface1">
<path style=" stroke:none;fill-rule:nonzero;fill:rgb(100%,45.878601%,33.329773%);fill-opacity:1;" d="M 187.5 6.65625 C 184.539062 6.65625 181.582031 6.730469 178.625 6.875 C 175.671875 7.019531 172.71875 7.238281 169.773438 7.527344 C 166.828125 7.816406 163.890625 8.179688 160.964844 8.613281 C 158.035156 9.046875 155.121094 9.554688 152.21875 10.132812 C 149.316406 10.707031 146.429688 11.355469 143.558594 12.074219 C 140.6875 12.796875 137.835938 13.585938 135.003906 14.441406 C 132.171875 15.300781 129.363281 16.230469 126.574219 17.226562 C 123.789062 18.226562 121.027344 19.289062 118.292969 20.421875 C 115.558594 21.554688 112.855469 22.753906 110.179688 24.019531 C 107.503906 25.285156 104.859375 26.613281 102.25 28.011719 C 99.640625 29.40625 97.066406 30.863281 94.527344 32.386719 C 91.988281 33.90625 89.488281 35.488281 87.027344 37.132812 C 84.566406 38.777344 82.148438 40.480469 79.773438 42.246094 C 77.394531 44.007812 75.0625 45.828125 72.773438 47.707031 C 70.484375 49.582031 68.246094 51.515625 66.054688 53.503906 C 63.859375 55.492188 61.71875 57.53125 59.625 59.625 C 57.53125 61.71875 55.492188 63.859375 53.503906 66.054688 C 51.515625 68.246094 49.582031 70.484375 47.707031 72.773438 C 45.828125 75.0625 44.007812 77.394531 42.246094 79.773438 C 40.480469 82.148438 38.777344 84.566406 37.132812 87.027344 C 35.488281 89.488281 33.90625 91.988281 32.386719 94.527344 C 30.863281 97.066406 29.40625 99.640625 28.011719 102.25 C 26.613281 104.859375 25.285156 107.503906 24.019531 110.179688 C 22.753906 112.855469 21.554688 115.558594 20.421875 118.292969 C 19.289062 121.027344 18.226562 123.789062 17.226562 126.574219 C 16.230469 129.363281 15.300781 132.171875 14.441406 135.003906 C 13.585938 137.835938 12.796875 140.6875 12.074219 143.558594 C 11.355469 146.429688 10.707031 149.316406 10.132812 152.21875 C 9.554688 155.121094 9.046875 158.035156 8.613281 160.964844 C 8.179688 163.890625 7.816406 166.828125 7.527344 169.773438 C 7.238281 172.71875 7.019531 175.671875 6.875 178.625 C 6.730469 181.582031 6.65625 184.539062 6.65625 187.5 C 6.65625 190.460938 6.730469 193.417969 6.875 196.375 C 7.019531 199.328125 7.238281 202.28125 7.527344 205.226562 C 7.816406 208.171875 8.179688 211.109375 8.613281 214.035156 C 9.046875 216.960938 9.554688 219.878906 10.132812 222.78125 C 10.707031 225.683594 11.355469 228.570312 12.074219 231.441406 C 12.796875 234.3125 13.585938 237.164062 14.441406 239.996094 C 15.300781 242.828125 16.230469 245.636719 17.226562 248.425781 C 18.226562 251.210938 19.289062 253.972656 20.421875 256.707031 C 21.554688 259.441406 22.753906 262.144531 24.019531 264.820312 C 25.285156 267.496094 26.613281 270.140625 28.011719 272.75 C 29.40625 275.359375 30.863281 277.933594 32.386719 280.472656 C 33.90625 283.011719 35.488281 285.511719 37.132812 287.972656 C 38.777344 290.433594 40.480469 292.851562 42.246094 295.226562 C 44.007812 297.605469 45.828125 299.9375 47.707031 302.226562 C 49.582031 304.515625 51.515625 306.753906 53.503906 308.945312 C 55.492188 311.140625 57.53125 313.28125 59.625 315.375 C 61.71875 317.46875 63.859375 319.507812 66.054688 321.496094 C 68.246094 323.484375 70.484375 325.417969 72.773438 327.292969 C 75.0625 329.171875 77.394531 330.992188 79.773438 332.753906 C 82.148438 334.519531 84.566406 336.222656 87.027344 337.867188 C 89.488281 339.511719 91.988281 341.09375 94.527344 342.613281 C 97.066406 344.136719 99.640625 345.59375 102.25 346.988281 C 104.859375 348.386719 107.503906 349.714844 110.179688 350.980469 C 112.855469 352.246094 115.558594 353.445312 118.292969 354.578125 C 121.027344 355.710938 123.789062 356.773438 126.574219 357.773438 C 129.363281 358.769531 132.171875 359.699219 135.003906 360.554688 C 137.835938 361.414062 140.6875 362.203125 143.558594 362.925781 C 146.429688 363.644531 149.316406 364.292969 152.21875 364.867188 C 155.121094 365.445312 158.035156 365.953125 160.964844 366.386719 C 163.890625 366.820312 166.828125 367.183594 169.773438 367.472656 C 172.71875 367.761719 175.671875 367.980469 178.625 368.125 C 181.582031 368.269531 184.539062 368.34375 187.5 368.34375 C 190.460938 368.34375 193.417969 368.269531 196.375 368.125 C 199.328125 367.980469 202.28125 367.761719 205.226562 367.472656 C 208.171875 367.183594 211.109375 366.820312 214.035156 366.386719 C 216.960938 365.953125 219.878906 365.445312 222.78125 364.867188 C 225.683594 364.292969 228.570312 363.644531 231.441406 362.925781 C 234.3125 362.203125 237.164062 361.414062 239.996094 360.554688 C 242.828125 359.699219 245.636719 358.769531 248.425781 357.773438 C 251.210938 356.773438 253.972656 355.710938 256.707031 354.578125 C 259.441406 353.445312 262.144531 352.246094 264.820312 350.980469 C 267.496094 349.714844 270.140625 348.386719 272.75 346.988281 C 275.359375 345.59375 277.933594 344.136719 280.472656 342.613281 C 283.011719 341.09375 285.511719 339.511719 287.972656 337.867188 C 290.433594 336.222656 292.851562 334.519531 295.226562 332.753906 C 297.605469 330.992188 299.9375 329.171875 302.226562 327.292969 C 304.515625 325.417969 306.753906 323.484375 308.945312 321.496094 C 311.140625 319.507812 313.28125 317.46875 315.375 315.375 C 317.46875 313.28125 319.507812 311.140625 321.496094 308.945312 C 323.484375 306.753906 325.417969 304.515625 327.292969 302.226562 C 329.171875 299.9375 330.992188 297.605469 332.753906 295.226562 C 334.519531 292.851562 336.222656 290.433594 337.867188 287.972656 C 339.511719 285.511719 341.09375 283.011719 342.613281 280.472656 C 344.136719 277.933594 345.59375 275.359375 346.988281 272.75 C 348.386719 270.140625 349.714844 267.496094 350.980469 264.820312 C 352.246094 262.144531 353.445312 259.441406 354.578125 256.707031 C 355.710938 253.972656 356.773438 251.210938 357.773438 248.425781 C 358.769531 245.636719 359.699219 242.828125 360.554688 239.996094 C 361.414062 237.164062 362.203125 234.3125 362.925781 231.441406 C 363.644531 228.570312 364.292969 225.683594 364.867188 222.78125 C 365.445312 219.878906 365.953125 216.960938 366.386719 214.035156 C 366.820312 211.109375 367.183594 208.171875 367.472656 205.226562 C 367.761719 202.28125 367.980469 199.328125 368.125 196.375 C 368.269531 193.417969 368.34375 190.460938 368.34375 187.5 C 368.34375 184.539062 368.269531 181.582031 368.125 178.625 C 367.980469 175.671875 367.761719 172.71875 367.472656 169.773438 C 367.183594 166.828125 366.820312 163.890625 366.386719 160.964844 C 365.953125 158.035156 365.445312 155.121094 364.867188 152.21875 C 364.292969 149.316406 363.644531 146.429688 362.925781 143.558594 C 362.203125 140.6875 361.414062 137.835938 360.554688 135.003906 C 359.699219 132.171875 358.769531 129.363281 357.773438 126.574219 C 356.773438 123.789062 355.710938 121.027344 354.578125 118.292969 C 353.445312 115.558594 352.246094 112.855469 350.980469 110.179688 C 349.714844 107.503906 348.386719 104.859375 346.988281 102.25 C 345.59375 99.640625 344.136719 97.066406 342.613281 94.527344 C 341.09375 91.988281 339.511719 89.488281 337.867188 87.027344 C 336.222656 84.566406 334.519531 82.148438 332.753906 79.773438 C 330.992188 77.394531 329.171875 75.0625 327.292969 72.773438 C 325.417969 70.484375 323.484375 68.246094 321.496094 66.054688 C 319.507812 63.859375 317.46875 61.71875 315.375 59.625 C 313.28125 57.53125 311.140625 55.492188 308.945312 53.503906 C 306.753906 51.515625 304.515625 49.582031 302.226562 47.707031 C 299.9375 45.828125 297.605469 44.007812 295.226562 42.246094 C 292.851562 40.480469 290.433594 38.777344 287.972656 37.132812 C 285.511719 35.488281 283.011719 33.90625 280.472656 32.386719 C 277.933594 30.863281 275.359375 29.40625 272.75 28.011719 C 270.140625 26.613281 267.496094 25.285156 264.820312 24.019531 C 262.144531 22.753906 259.441406 21.554688 256.707031 20.421875 C 253.972656 19.289062 251.210938 18.226562 248.425781 17.226562 C 245.636719 16.230469 242.828125 15.300781 239.996094 14.441406 C 237.164062 13.585938 234.3125 12.796875 231.441406 12.074219 C 228.570312 11.355469 225.683594 10.707031 222.78125 10.132812 C 219.878906 9.554688 216.960938 9.046875 214.035156 8.613281 C 211.109375 8.179688 208.171875 7.816406 205.226562 7.527344 C 202.28125 7.238281 199.328125 7.019531 196.375 6.875 C 193.417969 6.730469 190.460938 6.65625 187.5 6.65625 Z M 187.5 6.65625 "/>
<g clip-path="url(#clip1)" clip-rule="nonzero">
<path style=" stroke:none;fill-rule:nonzero;fill:rgb(22.349548%,25.878906%,35.289001%);fill-opacity:1;" d="M 135.167969 287.21875 L 210.902344 287.21875 L 203.585938 301.390625 C 202.738281 302.820312 202.867188 304.628906 203.90625 305.929688 C 204.945312 307.230469 206.683594 307.746094 208.265625 307.234375 L 276.238281 287.21875 C 278.003906 286.703125 279.191406 285.054688 279.117188 283.214844 L 271.121094 187.144531 C 271.007812 185.964844 270.378906 184.894531 269.402344 184.222656 L 215.859375 145.597656 L 235.132812 88.355469 C 235.785156 86.714844 235.285156 84.839844 233.902344 83.742188 C 232.519531 82.644531 230.585938 82.585938 229.136719 83.589844 L 176.234375 113.851562 L 142.367188 68.660156 C 141.398438 67.332031 139.71875 66.734375 138.128906 67.148438 C 136.539062 67.566406 135.367188 68.910156 135.167969 70.542969 C 127.171875 132.386719 127.171875 130.546875 127.171875 131.105469 L 127.171875 279.210938 C 127.171875 283.632812 130.753906 287.21875 135.167969 287.21875 Z M 270.882812 280.292969 L 215.140625 296.746094 L 264.285156 201.355469 Z M 261.964844 188.226562 L 215.140625 279.210938 L 138.167969 279.210938 L 212.382812 152.921875 Z M 224.019531 95.761719 L 209.144531 140.472656 L 182.3125 119.617188 Z M 204.945312 147.398438 L 160.5625 188.386719 L 136.570312 133.746094 L 174.15625 123.5 Z M 141.847656 81.308594 L 168.4375 116.773438 L 135.929688 125.660156 Z M 135.167969 150.238281 L 155.484375 196.753906 C 156.003906 197.945312 157.066406 198.808594 158.339844 199.074219 C 159.613281 199.335938 160.933594 198.960938 161.878906 198.074219 L 193.867188 168.414062 L 135.167969 268.484375 Z M 135.167969 150.238281 "/>
</g>
</g>
</svg>
